<svg width="33" height="33" viewBox="0 0 33 33" fill="none" xmlns="http://www.w3.org/2000/svg">
<path opacity="0.5" d="M24.4554 9.24418L22.0159 6.80467C19.9551 4.74395 18.9248 3.7136 17.588 3.33021C16.2512 2.94681 14.8313 3.27447 11.9917 3.92977L10.3541 4.30767C7.96508 4.85899 6.77057 5.13464 5.9526 5.95261C5.13463 6.77058 4.85897 7.9651 4.30766 10.3541L3.92976 11.9917C3.27445 14.8313 2.9468 16.2512 3.33019 17.588C3.71358 18.9248 4.74394 19.9552 6.80465 22.0159L9.24417 24.4554L9.24419 24.4554C12.8295 28.0407 14.6221 29.8334 16.8498 29.8334C19.0774 29.8334 20.87 28.0407 24.4554 24.4554L24.4554 24.4554L24.4554 24.4554C28.0407 20.8701 29.8333 19.0774 29.8333 16.8498C29.8333 14.6222 28.0407 12.8295 24.4554 9.24418Z" fill="#426CD8"/>
<path d="M15.3625 19.6046C14.4652 18.7073 14.4728 17.4198 15.0094 16.3995C14.7412 16.01 14.7804 15.4727 15.1268 15.1262C15.4719 14.7811 16.0066 14.741 16.3958 15.0059C16.849 14.7651 17.3469 14.6378 17.843 14.6424C18.3953 14.6477 18.8387 15.0996 18.8335 15.6518C18.8283 16.2041 18.3764 16.6476 17.8242 16.6424C17.5883 16.6401 17.2783 16.746 17.0124 17.0119C16.4957 17.5286 16.6316 18.0453 16.7767 18.1904C16.9218 18.3355 17.4385 18.4714 17.9552 17.9547C19.0006 16.9093 20.8055 16.5623 21.9621 17.719C22.8594 18.6163 22.8518 19.9037 22.3152 20.924C22.5834 21.3135 22.5443 21.8509 22.1979 22.1973C21.8526 22.5425 21.3178 22.5826 20.9285 22.3174C20.3194 22.6412 19.6263 22.7625 18.9656 22.6267C18.4246 22.5156 18.0762 21.9869 18.1874 21.4459C18.2986 20.9049 18.8272 20.5565 19.3682 20.6677C19.6044 20.7162 19.9852 20.6387 20.3122 20.3117C20.8289 19.795 20.693 19.2783 20.5479 19.1332C20.4028 18.9881 19.8861 18.8522 19.3694 19.3689C18.324 20.4143 16.5191 20.7612 15.3625 19.6046Z" fill="#426CD8"/>
<path d="M13.8615 14.2242C14.9029 13.1828 14.9029 11.4943 13.8615 10.4529C12.8201 9.41153 11.1317 9.41153 10.0903 10.4529C9.0489 11.4943 9.0489 13.1828 10.0903 14.2242C11.1317 15.2656 12.8201 15.2656 13.8615 14.2242Z" fill="#426CD8"/>
</svg>
