<svg width="25" height="24" viewBox="0 0 25 24" fill="none" xmlns="http://www.w3.org/2000/svg">
<path d="M19.1738 5L15.1738 9M15.1738 9V6M15.1738 9H18.1738" stroke="#426CD8" stroke-width="1.5" stroke-linecap="round" stroke-linejoin="round"/>
<path opacity="0.5" d="M15.73 14.5477L15.2745 15.0272C15.2745 15.0272 14.192 16.167 11.2369 13.0559C8.28194 9.94484 9.36453 8.80507 9.36453 8.80507L9.65135 8.50311C10.3579 7.75924 10.4245 6.56497 9.80807 5.6931L8.54708 3.90961C7.78411 2.8305 6.30979 2.68795 5.43528 3.60864L3.86568 5.26114C3.43206 5.71766 3.14148 6.30945 3.17672 6.96594C3.26686 8.64546 3.98454 12.259 7.98919 16.4752C12.236 20.9462 16.2207 21.1239 17.8501 20.9631C18.3655 20.9122 18.8138 20.6343 19.175 20.254L20.5955 18.7584C21.5544 17.7489 21.284 16.0182 20.0572 15.312L18.1466 14.2123C17.3411 13.7486 16.3596 13.8848 15.73 14.5477Z" fill="#426CD8"/>
</svg>
