<svg width="25" height="24" viewBox="0 0 25 24" fill="none" xmlns="http://www.w3.org/2000/svg">
<path opacity="0.5" d="M14.3738 3H9.97383C5.82547 3 3.75129 3 2.46256 4.31802C1.17383 5.63604 1.17383 7.75736 1.17383 12C1.17383 16.2426 1.17383 18.364 2.46256 19.682C3.75129 21 5.82547 21 9.97383 21H14.3738C18.5222 21 20.5964 21 21.8851 19.682C23.1738 18.364 23.1738 16.2426 23.1738 12C23.1738 7.75736 23.1738 5.63604 21.8851 4.31802C20.5964 3 18.5222 3 14.3738 3Z" fill="#426CD8"/>
<path d="M19.3022 8.034C19.6522 7.74231 19.6995 7.22209 19.4078 6.87206C19.1161 6.52204 18.5959 6.47474 18.2459 6.76643L15.8711 8.74542C14.8449 9.60063 14.1323 10.1925 13.5308 10.5794C12.9485 10.9539 12.5536 11.0796 12.174 11.0796C11.7945 11.0796 11.3996 10.9539 10.8173 10.5794C10.2157 10.1925 9.50324 9.60063 8.47698 8.74542L6.1022 6.76643C5.75217 6.47474 5.23195 6.52204 4.94026 6.87206C4.64857 7.22209 4.69586 7.74231 5.04589 8.034L7.46204 10.0475C8.43703 10.86 9.22727 11.5185 9.92474 11.9671C10.6513 12.4344 11.3589 12.7296 12.174 12.7296C12.9892 12.7296 13.6968 12.4344 14.4234 11.9671C15.1208 11.5185 15.9111 10.86 16.8861 10.0474L19.3022 8.034Z" fill="#426CD8"/>
</svg>
