<svg width="21" height="20" viewBox="0 0 21 20" fill="none" xmlns="http://www.w3.org/2000/svg">
<g clip-path="url(#clip0_5299_4237)">
<path fill-rule="evenodd" clip-rule="evenodd" d="M8.19007 13.0658C3.42999 13.0927 1.53209 8.47574 2.68236 3.85602C4.95747 0.633494 9.20696 -0.89168 13.6213 0.538349C13.1123 1.10489 13.2911 0.956739 12.7793 1.50698C9.0992 5.4657 6.39787 17.1009 15.199 18.5377C13.7003 19.8395 10.5532 20.0957 8.2969 19.6248C0.98746 18.0991 -1.49431 9.3114 2.1858 4.53877C1.78364 7.33928 1.56974 9.50666 3.07591 12.0584C4.10027 13.7941 5.59873 15.1612 8.5927 15.0153L8.19006 13.0658L8.19007 13.0658Z" fill="white"/>
<path fill-rule="evenodd" clip-rule="evenodd" d="M12.0229 13.8612C12.5889 16.0312 14.5054 17.2796 17.3379 17.1824C18.5405 15.7363 19.9818 13.9157 20.2867 11.0008C20.5859 8.13895 19.6729 5.66824 18.291 4.02051C16.974 8.95238 16.068 10.823 12.0229 13.8611V13.8612Z" fill="white"/>
<path fill-rule="evenodd" clip-rule="evenodd" d="M11.4655 10.6432C13.8696 9.94479 16.155 5.75047 16.5556 2.28737L15.8122 1.74622C12.7545 4.17907 11.2171 8.65337 11.4655 10.6432Z" fill="white"/>
</g>
<defs>
<clipPath id="clip0_5299_4237">
<rect width="19.8438" height="19.8438" fill="white" transform="translate(0.5)"/>
</clipPath>
</defs>
</svg>
