<svg width="41" height="41" viewBox="0 0 41 41" fill="none" xmlns="http://www.w3.org/2000/svg">
<path opacity="0.5" d="M20.5 25.9237L15.4714 31.1303C14.7512 31.876 14.3912 32.2488 14.0862 32.3778C13.3914 32.6718 12.6206 32.4202 12.255 31.7801C12.0946 31.4992 12.0446 30.9925 11.9447 29.9792L11.9447 29.9792C11.8882 29.407 11.86 29.1209 11.7743 28.8813C11.5825 28.3449 11.1795 27.9277 10.6615 27.7291C10.4301 27.6404 10.1538 27.6112 9.60123 27.5527L9.60118 27.5527C8.62249 27.4492 8.13314 27.3974 7.86184 27.2314C7.24362 26.8529 7.00063 26.0548 7.28457 25.3353C7.40917 25.0196 7.76925 24.6468 8.48941 23.9011L11.7743 20.4999L13.4253 18.8489L20.5 25.9237L27.5747 18.8489L29.2257 20.4999L32.5106 23.9011L32.5106 23.9011C33.2307 24.6468 33.5908 25.0196 33.7154 25.3353C33.9994 26.0548 33.7564 26.8529 33.1382 27.2314C32.8669 27.3974 32.3775 27.4492 31.3988 27.5527C30.8462 27.6112 30.5699 27.6404 30.3385 27.7291C29.8205 27.9277 29.4174 28.3449 29.2257 28.8813C29.14 29.1209 29.1118 29.407 29.0553 29.9791L29.0553 29.9792C28.9554 30.9925 28.9054 31.4992 28.745 31.7801C28.3794 32.4202 27.6086 32.6718 26.9138 32.3778C26.6088 32.2488 26.2488 31.876 25.5286 31.1303L20.5 25.9237Z" fill="#426CD8"/>
<path fill-rule="evenodd" clip-rule="evenodd" d="M20.5 25.8334C25.6547 25.8334 29.8333 21.6547 29.8333 16.5C29.8333 11.3454 25.6547 7.16669 20.5 7.16669C15.3453 7.16669 11.1667 11.3454 11.1667 16.5C11.1667 21.6547 15.3453 25.8334 20.5 25.8334ZM20.5 12.5C20.1213 12.5 19.8679 12.9545 19.3613 13.8634L19.2302 14.0985C19.0862 14.3568 19.0142 14.4859 18.902 14.5711C18.7897 14.6564 18.6499 14.688 18.3704 14.7512L18.1158 14.8088C17.1319 15.0314 16.64 15.1427 16.523 15.5191C16.4059 15.8955 16.7413 16.2876 17.412 17.072L17.5856 17.2749C17.7762 17.4978 17.8715 17.6092 17.9143 17.7471C17.9572 17.885 17.9428 18.0337 17.914 18.331L17.8878 18.6018C17.7863 19.6483 17.7356 20.1715 18.0421 20.4041C18.3485 20.6367 18.8091 20.4246 19.7303 20.0005L19.9686 19.8908C20.2304 19.7702 20.3613 19.71 20.5 19.71C20.6387 19.71 20.7696 19.7702 21.0314 19.8908L21.2697 20.0005C22.1909 20.4246 22.6515 20.6367 22.9579 20.4041C23.2643 20.1715 23.2136 19.6483 23.1122 18.6018L23.086 18.331C23.0572 18.0337 23.0428 17.885 23.0857 17.7471C23.1285 17.6092 23.2238 17.4978 23.4144 17.2749L23.588 17.072C24.2587 16.2877 24.5941 15.8955 24.477 15.5191C24.36 15.1427 23.8681 15.0314 22.8842 14.8088L22.6296 14.7512C22.3501 14.688 22.2103 14.6564 22.098 14.5711C21.9858 14.4859 21.9138 14.3568 21.7698 14.0985L21.6387 13.8634C21.1321 12.9545 20.8787 12.5 20.5 12.5Z" fill="#426CD8"/>
</svg>
