<svg width="33" height="32" viewBox="0 0 33 32" fill="none" xmlns="http://www.w3.org/2000/svg">
<path d="M4.5 15.9885C4.5 23.5059 10.1519 27.154 13.6981 28.7031C14.66 29.1233 15.141 29.3334 16.5 29.3334V10.6667L4.5 14.6667V15.9885Z" fill="#426CD8"/>
<path opacity="0.5" d="M19.3019 28.7031C22.848 27.154 28.5 23.5059 28.5 15.9885V14.6667L16.5 10.6667V29.3334C17.859 29.3334 18.34 29.1233 19.3019 28.7031Z" fill="#426CD8"/>
<path opacity="0.5" d="M12.2836 3.73964L11.5199 4.00108C7.5111 5.3733 5.50671 6.05941 5.00335 6.77657C4.5 7.49373 4.5 9.62545 4.5 13.8889V14.6667L16.5 10.6667V2.66669C15.4181 2.66669 14.3733 3.02434 12.2836 3.73964Z" fill="#426CD8"/>
<path d="M21.4801 4.00108L20.7164 3.73964C18.6267 3.02434 17.5819 2.66669 16.5 2.66669V10.6667L28.5 14.6667V13.8889C28.5 9.62545 28.5 7.49373 27.9966 6.77657C27.4933 6.05941 25.4889 5.3733 21.4801 4.00108Z" fill="#426CD8"/>
</svg>
