<svg width="32" height="32" viewBox="0 0 32 32" fill="none" xmlns="http://www.w3.org/2000/svg">
<path d="M2.66666 16.1654C2.66666 8.71027 8.63616 2.66669 15.9999 2.66669C23.3637 2.66669 29.3332 8.71027 29.3332 16.1654L29.3332 23.1566C29.3336 24.2458 29.3339 24.9928 29.1424 25.6486C28.768 26.9309 27.8727 27.9917 26.68 28.5661C26.07 28.8598 25.3412 28.9761 24.2784 29.1455L24.1051 29.1732C23.7272 29.2336 23.4042 29.2853 23.1363 29.3119C22.8575 29.3396 22.5732 29.3481 22.2824 29.2901C21.3255 29.0994 20.5365 28.4168 20.2011 27.4897C20.0992 27.2079 20.0631 26.9222 20.0467 26.6391C20.0309 26.367 20.0309 26.0361 20.0309 25.6487L20.0308 20.0855C20.0301 19.5182 20.0295 19.0301 20.1593 18.612C20.4563 17.6555 21.2317 16.93 22.1969 16.7056C22.6188 16.6075 23.0994 16.6465 23.658 16.6918L23.7823 16.7019L23.9287 16.7136C24.9737 16.7967 25.6886 16.8536 26.2955 17.0808C26.7219 17.2405 27.1175 17.4604 27.4727 17.7302V16.1654C27.4727 9.75052 22.3362 4.55023 15.9999 4.55023C9.66366 4.55023 4.52711 9.75052 4.52711 16.1654V17.7302C4.88233 17.4604 5.27789 17.2405 5.70438 17.0808C6.31126 16.8536 7.02619 16.7967 8.07113 16.7136L8.21757 16.7019L8.34187 16.6918C8.90045 16.6465 9.38107 16.6075 9.80297 16.7056C10.7681 16.93 11.5435 17.6555 11.8405 18.612C11.9703 19.0301 11.9697 19.5182 11.969 20.0855L11.9689 25.6487C11.9689 26.036 11.9689 26.367 11.9531 26.6391C11.9367 26.9222 11.9007 27.2079 11.7987 27.4897C11.4634 28.4168 10.6743 29.0994 9.71748 29.2901C9.42667 29.3481 9.14232 29.3396 8.86357 29.3119C8.5956 29.2853 8.27264 29.2336 7.89468 29.1732L7.7214 29.1455C6.65864 28.9761 5.92982 28.8598 5.31987 28.5661C4.12711 27.9917 3.23183 26.9309 2.85743 25.6486C2.69955 25.1078 2.67204 24.5051 2.66746 23.6996L2.66666 23.4405V16.1654Z" fill="#426CD8"/>
<g opacity="0.5">
<path fill-rule="evenodd" clip-rule="evenodd" d="M16 7.66669C16.5523 7.66669 17 8.1144 17 8.66669L17 15.3334C17 15.8856 16.5523 16.3334 16 16.3334C15.4477 16.3334 15 15.8856 15 15.3334L15 8.66669C15 8.1144 15.4477 7.66669 16 7.66669Z" fill="#426CD8"/>
<path fill-rule="evenodd" clip-rule="evenodd" d="M20 9.66669C20.5523 9.66669 21 10.1144 21 10.6667V13.3334C21 13.8856 20.5523 14.3334 20 14.3334C19.4477 14.3334 19 13.8856 19 13.3334V10.6667C19 10.1144 19.4477 9.66669 20 9.66669Z" fill="#426CD8"/>
<path fill-rule="evenodd" clip-rule="evenodd" d="M12 9.66669C12.5523 9.66669 13 10.1144 13 10.6667L13 13.3334C13 13.8856 12.5523 14.3334 12 14.3334C11.4477 14.3334 11 13.8856 11 13.3334L11 10.6667C11 10.1144 11.4477 9.66669 12 9.66669Z" fill="#426CD8"/>
</g>
</svg>
