<svg width="25" height="24" viewBox="0 0 25 24" fill="none" xmlns="http://www.w3.org/2000/svg">
<path opacity="0.5" d="M12.8944 21.9999C17.7305 21.9999 21.651 18.1162 21.651 13.3253C21.651 8.53441 17.7305 4.65063 12.8944 4.65063C8.05819 4.65063 4.1377 8.53441 4.1377 13.3253C4.1377 18.1162 8.05819 21.9999 12.8944 21.9999Z" fill="#426CD8"/>
<path d="M12.8943 8.74707C13.2973 8.74707 13.624 9.07072 13.624 9.46996V13.0259L15.8427 15.2238C16.1276 15.5061 16.1276 15.9638 15.8427 16.2461C15.5577 16.5285 15.0957 16.5285 14.8107 16.2461L12.3783 13.8365C12.2414 13.701 12.1646 13.5171 12.1646 13.3254V9.46996C12.1646 9.07072 12.4913 8.74707 12.8943 8.74707Z" fill="#426CD8"/>
<path fill-rule="evenodd" clip-rule="evenodd" d="M9.13503 2.33986C9.34862 2.67841 9.24473 3.1244 8.90297 3.33599L5.0111 5.74562C4.66934 5.95722 4.21914 5.8543 4.00555 5.51574C3.79195 5.17718 3.89584 4.7312 4.2376 4.5196L8.12947 2.10998C8.47123 1.89838 8.92143 2.0013 9.13503 2.33986Z" fill="#426CD8"/>
<path fill-rule="evenodd" clip-rule="evenodd" d="M16.6541 2.33985C16.8677 2.0013 17.3179 1.89838 17.6596 2.10998L21.5515 4.5196C21.8932 4.7312 21.9971 5.17719 21.7835 5.51574C21.5699 5.8543 21.1197 5.95722 20.778 5.74562L16.8861 3.33599C16.5444 3.1244 16.4405 2.67841 16.6541 2.33985Z" fill="#426CD8"/>
</svg>
