<svg width="32" height="33" viewBox="0 0 32 33" fill="none" xmlns="http://www.w3.org/2000/svg">
<path d="M6.52214 13.3191C6.52214 12.7826 6.95367 12.3477 7.486 12.3477H12.6266C13.1589 12.3477 13.5904 12.7826 13.5904 13.3191C13.5904 13.8556 13.1589 14.2905 12.6266 14.2905H7.486C6.95367 14.2905 6.52214 13.8556 6.52214 13.3191Z" fill="#426CD8"/>
<path fill-rule="evenodd" clip-rule="evenodd" d="M28.2512 13.8383C28.1682 13.8332 28.0779 13.8333 27.9842 13.8333L27.9608 13.8333H24.2866C21.2581 13.8333 18.6667 16.1481 18.6667 19.1666C18.6667 22.1852 21.2581 24.5 24.2866 24.5H27.9608L27.9841 24.5C28.0779 24.5 28.1682 24.5 28.2512 24.495C29.4814 24.4195 30.5693 23.4848 30.6608 22.1792C30.6668 22.0936 30.6667 22.0013 30.6667 21.9158L30.6667 21.8926V16.4407L30.6667 16.4175C30.6667 16.332 30.6668 16.2397 30.6608 16.1541C30.5693 14.8485 29.4814 13.9138 28.2512 13.8383ZM23.9608 20.5889C24.7405 20.5889 25.3725 19.9521 25.3725 19.1666C25.3725 18.3812 24.7405 17.7444 23.9608 17.7444C23.1811 17.7444 22.549 18.3812 22.549 19.1666C22.549 19.9521 23.1811 20.5889 23.9608 20.5889Z" fill="#426CD8"/>
<path opacity="0.5" d="M28.1859 13.8354C28.1859 12.2612 28.1286 10.5726 27.1224 9.36213C27.0252 9.24527 26.9218 9.13181 26.8117 9.02168C25.8139 8.02386 24.5486 7.58104 22.9854 7.37087C21.4664 7.16665 19.5256 7.16667 17.0753 7.16669H14.2581C11.8078 7.16667 9.86692 7.16665 8.34798 7.37087C6.78475 7.58104 5.51948 8.02386 4.52166 9.02168C3.52385 10.0195 3.08102 11.2848 2.87085 12.848C2.66664 14.3669 2.66665 16.3078 2.66667 18.7581V18.9086C2.66665 21.3589 2.66664 23.2998 2.87085 24.8187C3.08102 26.382 3.52385 27.6472 4.52166 28.645C5.51948 29.6428 6.78475 30.0857 8.34798 30.2958C9.86692 30.5001 11.8077 30.5 14.2581 30.5H17.0752C19.5255 30.5 21.4664 30.5001 22.9854 30.2958C24.5486 30.0857 25.8139 29.6428 26.8117 28.645C27.0844 28.3723 27.3159 28.0792 27.5128 27.7648C28.1134 26.8055 28.1859 25.6298 28.1859 24.498C28.1216 24.5001 28.0538 24.5 27.9842 24.5L24.2866 24.5C21.2581 24.5 18.6667 22.1853 18.6667 19.1667C18.6667 16.1481 21.2581 13.8334 24.2866 13.8334L27.9842 13.8334C28.0538 13.8333 28.1216 13.8333 28.1859 13.8354Z" fill="#426CD8"/>
<path d="M13.4686 3.9295L10.6667 5.8234L8.35562 7.36984C9.87343 7.16665 11.8119 7.16667 14.2581 7.16669H17.0752C19.5256 7.16667 21.4664 7.16665 22.9854 7.37087C23.2909 7.41195 23.5851 7.46191 23.8681 7.52318L21.3333 5.83335L18.5167 3.9295C17.0119 2.91241 14.9734 2.91241 13.4686 3.9295Z" fill="#426CD8"/>
</svg>
